<svg width="204" height="110" viewBox="0 0 204 110" fill="none" xmlns="http://www.w3.org/2000/svg">
<path d="M103.271 31.6147C103.31 31.7082 103.401 31.7692 103.502 31.7692L178.026 31.7692L203.638 57.1093L166.025 91.9056L147.319 77.8578C147.231 77.792 147.111 77.7909 147.022 77.855L128.724 91.0727L112.119 78.2827C112.076 78.249 112.022 78.2308 111.967 78.2308H103.484C103.382 78.2308 103.29 78.2932 103.252 78.3884C99.7363 87.2264 93.8766 94.664 85.6651 100.702C77.4696 106.729 67.2278 109.75 54.9231 109.75C39.7682 109.75 26.873 104.401 16.223 93.697C5.57254 82.9928 0.25 70.0818 0.25 54.9503C0.25 39.8186 5.57252 26.9244 16.2228 16.2535C26.8727 5.58284 39.768 0.25 54.9231 0.25C66.0497 0.25 75.8277 2.91888 84.2656 8.24981C92.6995 13.5782 99.0355 21.3621 103.271 31.6147ZM128.561 70.847C128.648 70.9188 128.773 70.923 128.865 70.8573L147.379 57.6353L164.622 70.2212C164.714 70.2883 164.84 70.2848 164.928 70.2126L180.408 57.5202C180.462 57.4758 180.495 57.4106 180.499 57.3406C180.503 57.2705 180.477 57.2021 180.428 57.152L171.522 48.0559C171.475 48.0078 171.41 47.9808 171.343 47.9808L91.8168 47.9808C90.2203 39.5466 85.9545 32.2332 79.0319 26.0444C72.047 19.7997 64.0075 16.6731 54.9231 16.6731C44.2548 16.6731 35.2134 20.4007 27.8143 27.8527C20.4157 35.3041 16.7147 44.3581 16.7147 55C16.7147 65.6419 20.4157 74.6959 27.8143 82.1473C35.2134 89.5993 44.2548 93.3269 54.9231 93.3269C63.6083 93.3269 71.4049 90.4134 78.3046 84.595C85.1576 78.8159 89.6583 71.2871 91.8082 62.0192L117.815 62.0192L128.561 70.847ZM54.9757 71.0385C50.7718 71.0385 47.0703 69.4297 43.8615 66.1937C40.6522 62.9572 39.0567 59.2465 39.0567 55.0525C39.0567 50.8574 40.6355 47.1285 43.8108 43.8568C46.9844 40.5869 50.6676 38.9615 54.8705 38.9615C59.2181 38.9615 62.9897 40.5721 66.1967 43.8063C69.4061 47.0428 71.0016 50.7535 71.0016 54.9475C71.0016 59.1426 69.4227 62.8715 66.2474 66.1432C63.0756 69.4113 59.3223 71.0385 54.9757 71.0385Z" fill="url(#paint0_linear_1512_19)" stroke="black" stroke-width="0.5" stroke-linejoin="round"/>
<defs>
<linearGradient id="paint0_linear_1512_19" x1="102" y1="0" x2="102" y2="110" gradientUnits="userSpaceOnUse">
<stop offset="0.171875" stop-color="#FFE600" stop-opacity="0.4375"/>
<stop offset="1" stop-color="#FF9900"/>
</linearGradient>
</defs>
</svg>
