<svg xmlns="http://www.w3.org/2000/svg" height="48" viewBox="0 96 960 960" width="48"><path d="M280.248 653Q250 653 227 629.748q-23-23.252-23-53.5t22.752-53.748q22.752-23.5 53-23.5Q311 499 334 522.252q23 23.252 23 53.5T334.248 629.5q-22.752 23.5-54 23.5ZM280 836q-107.667 0-183.333-76.235Q21 683.529 21 575.765 21 468 96.667 392 172.333 316 280 316q79 0 139 38t90.083 111H861l122 121-179 166-89-67-87 63-79-61h-40q-25 63-83.332 106Q367.335 836 280 836Zm0-80q61 0 109.5-41T453 608h124l51 42 88-63 82 60 73-60-42-43H453q-11-60-60.096-104Q343.809 396 280 396q-75 0-127 52.5T101 576q0 75 52 127.5T280 756Z"/></svg>